<svg id="Layer_1" data-name="Layer 1" xmlns="http://www.w3.org/2000/svg" viewBox="0 0 1080 407.21"><defs><style>.cls-1{fill:#fff;}.cls-2{fill:#f6ed49;}</style></defs><path class="cls-1" d="M709.53,544.42c-13.86,0-24.53-3.64-31.7-10.82-6.47-6.7-10.06-16.52-10.06-27.63,0-22.15,16-35.38,42.78-35.38h33.89v-9.7c0-16.34-8.83-24-27.78-24-11.29,0-18.32,2.7-25.57,10.12L674.6,430.76c11.43-11.68,22.78-15.7,43.33-15.7,36,0,53.48,14.33,53.48,43.8v84.29H745.2V527.34L740,532.58C731.22,541.32,723.26,544.42,709.53,544.42Zm6.62-57.31c-19.74,0-22.69,11.5-22.69,18.36,0,5.44,2.26,18.1,23.2,18.1,8.75,0,15.44-1.21,21.73-7.22,5.3-4.59,6.05-11.87,6.05-19V487.11Z" transform="translate(-420 -349.97)"/><path class="cls-1" d="M794.87,591.8V416.59h26V434l5.35-6c8.42-9.35,17.06-13,30.83-13,12.22,0,23.11,4,29.88,11,11.91,12.14,12.9,32.3,12.9,53.64s-1,41.76-12.88,53.88c-6.79,7-17.69,11.06-29.9,11.06-13.45,0-22.35-3.65-29.77-12.19l-5.4-6.21V591.8Zm52.45-153.08c-23.52,0-25.49,21.17-25.49,41s2,41.28,25.49,41.28,25.49-21.31,25.49-41.28S870.84,438.72,847.32,438.72Z" transform="translate(-420 -349.97)"/><path class="cls-1" d="M959.8,543.15c-26.12,0-35.39-18.79-35.39-34.88V439.48h-14V420.41h14V381.19h27v39.22h23.43v19.07H951.38v66.75c0,9.7,5.16,15,14.53,15h8.9v21.88Z" transform="translate(-420 -349.97)"/><path class="cls-1" d="M1043.19,544.68c-38.7,0-58.32-21.85-58.32-64.94,0-39.89,21-64.68,54.75-64.68s54.75,23.42,54.75,61.12v10.93h-83v3.07c0,19.82,12.61,32.62,32.11,32.62,14.22,0,21.94-3.95,30-11.3l15.78,15.38C1077.58,538.19,1065.73,544.68,1043.19,544.68Zm-3.57-108.26c-11.4,0-20.49,5.68-25,15.57-2.48,5.24-3,9.14-3.33,15.39l-.13,3.21h56.85l-.14-3.21c-.27-6.24-.84-10.15-3.35-15.44C1060.11,442.1,1051,436.42,1039.62,436.42Z" transform="translate(-420 -349.97)"/><path class="cls-1" d="M1147.1,544.42c-13.86,0-24.52-3.64-31.7-10.82-6.47-6.7-10.05-16.52-10.05-27.63,0-22.15,16-35.38,42.77-35.38H1182v-9.7c0-16.34-8.82-24-27.77-24-11.29,0-18.33,2.7-25.58,10.12l-16.49-16.29c11.43-11.68,22.79-15.7,43.34-15.7,36,0,53.47,14.33,53.47,43.8v84.29h-26.2V527.34l-5.25,5.24C1168.79,541.32,1160.83,544.42,1147.1,544.42Zm6.63-57.31c-19.74,0-22.69,11.5-22.69,18.36,0,5.44,2.26,18.1,23.2,18.1,8.74,0,15.43-1.21,21.73-7.22,5.3-4.59,6-11.87,6-19V487.11Z" transform="translate(-420 -349.97)"/><path class="cls-1" d="M1309.62,543.15V466c0-12.58-6.54-27.27-25-27.27-11.64,0-25.23,7.14-25.23,27.27v77.16h-27V416.59h26.21v16.88l5.3-5.62c7.68-8.13,18.93-12.79,30.88-12.79s22.08,3.74,29.16,10.82c8.83,8.83,12.6,19.45,12.6,35.52v81.75Z" transform="translate(-420 -349.97)"/><path class="cls-2" d="M638.09,509.59l-95-155.6a8.37,8.37,0,0,0-9.93-3.56l97.51,159.71a8.72,8.72,0,0,1,.4,8.36l-19.24,39.74a9.28,9.28,0,0,1-1.37,2,8.38,8.38,0,0,0,9.53-4.5l18.49-38.17A8.37,8.37,0,0,0,638.09,509.59Z" transform="translate(-420 -349.97)"/><polygon class="cls-2" points="133.84 187.37 147.69 182.95 158.64 200.99 133.84 187.37"/><polygon class="cls-2" points="69.12 57.13 102.84 111.62 94.11 131.16 25.35 152.14 69.12 57.13"/><path class="cls-2" d="M420.71,555.57,442,509.4l93.22-28.48,29.12,46.8L429.68,566A7.59,7.59,0,0,1,420.71,555.57Z" transform="translate(-420 -349.97)"/><path class="cls-2" d="M623.32,518.53l-18.56,38.31a8.43,8.43,0,0,1-14.73.79L492,400.92l20.74-45.73a8.44,8.44,0,0,1,14.88-.91l95.35,156.18A8.45,8.45,0,0,1,623.32,518.53Z" transform="translate(-420 -349.97)"/><path class="cls-2" d="M623.32,518.53l-18.56,38.31a8.43,8.43,0,0,1-14.73.79L492,400.92l20.74-45.73a8.44,8.44,0,0,1,14.88-.91l95.35,156.18A8.45,8.45,0,0,1,623.32,518.53Z" transform="translate(-420 -349.97)"/><path class="cls-1" d="M439.89,717.22h-10.4v25.39H420V682.26h19.14c16.23,0,26,3.41,26,17.4,0,8.66-4.16,13.57-11.65,15.9l13.9,27.05H456.7l-12.9-25.47C442.55,717.22,441.22,717.22,439.89,717.22Zm-10.4-7.74h10.9c8.91,0,15-1.33,15-9.65,0-8.66-6.57-9.74-15.15-9.74H429.49Z" transform="translate(-420 -349.97)"/><path class="cls-1" d="M514,729.46c-2.08,7.41-8.74,14.23-20.14,14.23-14.48,0-22.31-10.57-22.31-23.56,0-13.89,9.33-23.13,22.06-23.13,13.82,0,21.89,11.32,21,25.88H480.5c.83,8.24,6.08,13.4,13.07,13.4,6.24,0,9.9-2.57,11.73-6.82Zm-8.4-13.4c-.25-6.66-4.91-12-12.07-12-6.75,0-11.74,3.5-12.91,12Z" transform="translate(-420 -349.97)"/><path class="cls-1" d="M550.24,714.89V714c0-7.91-4.16-10.57-9.65-10.57-6,0-9.41,3.08-9.74,8.57h-8.74c.75-9.49,8.57-15.23,18.81-15.23,11.57,0,18.23,5.57,18.06,19,0,1.08-.16,8.82-.16,10.73a82.8,82.8,0,0,0,1.25,16.15h-8.33a39.5,39.5,0,0,1-.75-5.91c-2.66,4.5-7.74,7-15,7-9.07,0-16-5-16-13.15C520,719.64,532.85,716.72,550.24,714.89Zm-20.8,15.48c0,4.08,3.24,6.67,8.48,6.67,7.16,0,12.74-3.59,12.74-12.49V721.3C536.76,722.64,529.44,724.55,529.44,730.37Z" transform="translate(-420 -349.97)"/><path class="cls-1" d="M608.25,682.26v60.35h-8.66v-6.33c-2.74,4.58-7.4,7.41-14,7.41-10.4,0-19.31-8.74-19.31-23.39s8.91-23.3,19.31-23.3c6.58,0,11.24,2.83,14,7.41V682.26Zm-32.71,38c0,10.07,4.91,16.15,12.07,16.15,6.66,0,12.32-5.07,12.32-16.15s-5.66-16.06-12.32-16.06C580.45,704.24,575.54,710.23,575.54,720.3Z" transform="translate(-420 -349.97)"/><path class="cls-1" d="M617.56,750.27H621c4.66,0,6.66-.34,8.82-6.74l.33-1L614,697.83h9.57l10.82,33.38L645,697.83h9l-15.81,45.78c-3.67,10.57-6.33,13.57-16.4,13.57h-4.17Z" transform="translate(-420 -349.97)"/><path class="cls-1" d="M694.21,682.26h3.92v6.91H694.8c-4.42,0-5.33.92-5.33,5.58v3.08h8.66v6.58h-8.66v38.2h-8.66v-38.2h-6.24v-6.58h6.24v-3C680.81,684.93,683.73,682.26,694.21,682.26Z" transform="translate(-420 -349.97)"/><path class="cls-1" d="M722.68,743.69c-10.57,0-21.73-7.15-21.73-23.3S712.11,697,722.68,697s21.8,7.15,21.8,23.39S733.33,743.69,722.68,743.69Zm12.65-23.3c0-11.16-6.08-16.07-12.65-16.07s-12.57,4.75-12.57,16.07c0,11.07,6.07,16,12.57,16S735.33,731.29,735.33,720.39Z" transform="translate(-420 -349.97)"/><path class="cls-1" d="M771.53,706.49c-6.66,0-10.16,3.24-10.16,12.65v23.47h-8.65V697.83h8.49v7.91a13.36,13.36,0,0,1,12.4-8.08c.75,0,1.66,0,2.41.08v9A42,42,0,0,0,771.53,706.49Z" transform="translate(-420 -349.97)"/><path class="cls-1" d="M861.25,682.26h10l-14.57,60.35H845.26l-10.9-48-10.74,48h-11.4L797.4,682.26h10.41L818.46,731l10.41-48.78h11.07L851.09,731Z" transform="translate(-420 -349.97)"/><path class="cls-1" d="M900.77,697c10.82,0,15,7,15,17.39v28.22H907.1V716.72c0-6.49-1.08-12.48-9.24-12.48-7.5,0-11.16,5.41-11.16,14.32v24.05h-8.65V682.26h8.65v22.06C889.28,699.91,893.78,697,900.77,697Z" transform="translate(-420 -349.97)"/><path class="cls-1" d="M953.53,714.89V714c0-7.91-4.16-10.57-9.65-10.57-6,0-9.41,3.08-9.74,8.57H925.4c.75-9.49,8.57-15.23,18.81-15.23,11.57,0,18.23,5.57,18.06,19,0,1.08-.16,8.82-.16,10.73a82.8,82.8,0,0,0,1.25,16.15H955a39.5,39.5,0,0,1-.75-5.91c-2.66,4.5-7.74,7-15,7-9.07,0-16-5-16-13.15C923.32,719.64,936.14,716.72,953.53,714.89Zm-20.8,15.48c0,4.08,3.24,6.67,8.48,6.67,7.16,0,12.74-3.59,12.74-12.49V721.3C940.05,722.64,932.73,724.55,932.73,730.37Z" transform="translate(-420 -349.97)"/><path class="cls-1" d="M982.41,686.34v11.49h8.82v6.58h-8.82V730c0,4.58.75,5.74,5.08,5.74h3.66v6.91h-6.33c-9.07,0-11.07-2.25-11.07-11.49V704.41h-6.83v-6.58h6.83V686.34Z" transform="translate(-420 -349.97)"/><path class="cls-1" d="M1010.12,682.26v11.16L1004.71,705H999.3l5-12.32h-4.58V682.26Z" transform="translate(-420 -349.97)"/><path class="cls-1" d="M1033.51,703.91c-4.25,0-8.83,1.74-8.83,5.4,0,3.33,2.17,4.75,6.25,5.58l6.4,1.25c8.5,1.66,15.9,4.58,15.9,13.32,0,9.07-8.49,14.23-18.81,14.23-11.32,0-18.23-6.57-19.31-15h8.82c1.17,5.08,4.5,8.07,10.74,8.07,5.58,0,9.91-2.33,9.91-6.32,0-4.16-3.91-5.83-8.58-6.74l-6.74-1.34c-6.74-1.32-13.07-4.32-13.07-12.73,0-7.91,8.33-12.73,18.15-12.73,9,0,16.23,4.74,17.89,13.39h-8.57C1042.41,705.74,1038.58,703.91,1033.51,703.91Z" transform="translate(-420 -349.97)"/><path class="cls-1" d="M1091.51,692.67v49.94h-9.32V682.26h13.23l26.64,49.86V682.26h9.32v60.35h-13.23Z" transform="translate(-420 -349.97)"/><path class="cls-1" d="M1183.31,729.46c-2.08,7.41-8.74,14.23-20.15,14.23-14.48,0-22.3-10.57-22.3-23.56,0-13.89,9.32-23.13,22.05-23.13,13.82,0,21.9,11.32,21,25.88h-34.13c.84,8.24,6.08,13.4,13.07,13.4,6.25,0,9.91-2.57,11.74-6.82Zm-8.41-13.4c-.25-6.66-4.91-12-12.07-12-6.74,0-11.73,3.5-12.9,12Z" transform="translate(-420 -349.97)"/><path class="cls-1" d="M1228.08,742.61h-10.32l-11.4-16.15L1195,742.61h-9.73l16.39-22.89-15.4-21.89h10.24l10.32,14.65,10.49-14.65h9.57l-15.31,21.39Z" transform="translate(-420 -349.97)"/><path class="cls-1" d="M1246.3,686.34v11.49h8.82v6.58h-8.82V730c0,4.58.75,5.74,5.08,5.74H1255v6.91h-6.32c-9.08,0-11.08-2.25-11.08-11.49V704.41h-6.82v-6.58h6.82V686.34Z" transform="translate(-420 -349.97)"/><path class="cls-1" d="M1273.6,732.2v11.16l-5.41,11.57h-5.41l5-12.32h-4.58V732.2Z" transform="translate(-420 -349.97)"/><path class="cls-1" d="M1314,692.67v49.94h-9.32V682.26h13.23l26.64,49.86V682.26h9.32v60.35H1340.6Z" transform="translate(-420 -349.97)"/><path class="cls-1" d="M1385,743.69c-10.57,0-21.72-7.15-21.72-23.3S1374.46,697,1385,697s21.81,7.15,21.81,23.39S1395.69,743.69,1385,743.69Zm12.66-23.3c0-11.16-6.08-16.07-12.66-16.07s-12.57,4.75-12.57,16.07c0,11.07,6.08,16,12.57,16S1397.69,731.29,1397.69,720.39Z" transform="translate(-420 -349.97)"/><path class="cls-1" d="M1443.45,697.83l8.33,32.46,7.65-32.46h9.41l-12.48,44.78h-8.08l-9.4-34.63-9.16,34.63h-8.16l-12.4-44.78h9.41l7.57,32.46,8.33-32.46Z" transform="translate(-420 -349.97)"/><path class="cls-1" d="M1500,693.23a12.42,12.42,0,1,1-12.4-12.49A12.08,12.08,0,0,1,1500,693.23Zm-2.45,0c0-6.16-4.25-10.27-10-10.27s-10,4.11-10,10.27a9.75,9.75,0,0,0,10,10.18C1493.3,703.41,1497.55,699.3,1497.55,693.23Zm-12.07,1.1v5h-2.72V686.14h4c3.91,0,6.23.67,6.23,4.11a3.71,3.71,0,0,1-2.39,3.52l3,5.6h-3l-2.69-5Zm0-6v3.94h1.92c2.06,0,2.92-.66,2.92-2,0-1.59-1.26-2-3.08-2Z" transform="translate(-420 -349.97)"/></svg>